<mxfile host="app.diagrams.net" modified="2023-04-08T09:08:35.035Z" agent="Mozilla/5.0 (Windows NT 10.0; Win64; x64) AppleWebKit/537.36 (KHTML, like Gecko) Chrome/112.0.0.0 Safari/537.36" etag="IMXVcmKld0WKCC0hSUid" version="21.1.5" type="device">
  <diagram id="C5RBs43oDa-KdzZeNtuy" name="Page-1">
    <mxGraphModel dx="2074" dy="1120" grid="1" gridSize="10" guides="1" tooltips="1" connect="1" arrows="1" fold="1" page="1" pageScale="1" pageWidth="827" pageHeight="1169" math="0" shadow="0">
      <root>
        <mxCell id="WIyWlLk6GJQsqaUBKTNV-0" />
        <mxCell id="WIyWlLk6GJQsqaUBKTNV-1" parent="WIyWlLk6GJQsqaUBKTNV-0" />
        <mxCell id="WIyWlLk6GJQsqaUBKTNV-2" value="" style="rounded=0;html=1;jettySize=auto;orthogonalLoop=1;fontSize=11;endArrow=block;endFill=0;endSize=8;strokeWidth=1;shadow=0;labelBackgroundColor=none;edgeStyle=orthogonalEdgeStyle;" parent="WIyWlLk6GJQsqaUBKTNV-1" source="WIyWlLk6GJQsqaUBKTNV-3" target="WIyWlLk6GJQsqaUBKTNV-6" edge="1">
          <mxGeometry relative="1" as="geometry" />
        </mxCell>
        <mxCell id="WIyWlLk6GJQsqaUBKTNV-3" value="Receive guess word input" style="rounded=1;whiteSpace=wrap;html=1;fontSize=12;glass=0;strokeWidth=1;shadow=0;" parent="WIyWlLk6GJQsqaUBKTNV-1" vertex="1">
          <mxGeometry x="160" y="80" width="120" height="40" as="geometry" />
        </mxCell>
        <mxCell id="WIyWlLk6GJQsqaUBKTNV-4" value="Yes" style="rounded=0;html=1;jettySize=auto;orthogonalLoop=1;fontSize=11;endArrow=block;endFill=0;endSize=8;strokeWidth=1;shadow=0;labelBackgroundColor=none;edgeStyle=orthogonalEdgeStyle;" parent="WIyWlLk6GJQsqaUBKTNV-1" source="WIyWlLk6GJQsqaUBKTNV-6" edge="1">
          <mxGeometry y="20" relative="1" as="geometry">
            <mxPoint as="offset" />
            <mxPoint x="220" y="310" as="targetPoint" />
          </mxGeometry>
        </mxCell>
        <mxCell id="WIyWlLk6GJQsqaUBKTNV-5" value="No" style="edgeStyle=orthogonalEdgeStyle;rounded=0;html=1;jettySize=auto;orthogonalLoop=1;fontSize=11;endArrow=block;endFill=0;endSize=8;strokeWidth=1;shadow=0;labelBackgroundColor=none;" parent="WIyWlLk6GJQsqaUBKTNV-1" source="WIyWlLk6GJQsqaUBKTNV-6" target="WIyWlLk6GJQsqaUBKTNV-7" edge="1">
          <mxGeometry y="10" relative="1" as="geometry">
            <mxPoint as="offset" />
          </mxGeometry>
        </mxCell>
        <mxCell id="WIyWlLk6GJQsqaUBKTNV-6" value="Is it valid? (check if in all_words)" style="rhombus;whiteSpace=wrap;html=1;shadow=0;fontFamily=Helvetica;fontSize=12;align=center;strokeWidth=1;spacing=6;spacingTop=-4;" parent="WIyWlLk6GJQsqaUBKTNV-1" vertex="1">
          <mxGeometry x="170" y="170" width="100" height="80" as="geometry" />
        </mxCell>
        <mxCell id="WIyWlLk6GJQsqaUBKTNV-7" value="Invalid message" style="rounded=1;whiteSpace=wrap;html=1;fontSize=12;glass=0;strokeWidth=1;shadow=0;" parent="WIyWlLk6GJQsqaUBKTNV-1" vertex="1">
          <mxGeometry x="320" y="190" width="120" height="40" as="geometry" />
        </mxCell>
        <mxCell id="QoPVbOla9lt13iPbxesd-10" style="edgeStyle=orthogonalEdgeStyle;rounded=0;orthogonalLoop=1;jettySize=auto;html=1;exitX=0.5;exitY=1;exitDx=0;exitDy=0;entryX=0.5;entryY=0;entryDx=0;entryDy=0;" edge="1" parent="WIyWlLk6GJQsqaUBKTNV-1" target="QoPVbOla9lt13iPbxesd-9">
          <mxGeometry relative="1" as="geometry">
            <mxPoint x="220" y="480" as="sourcePoint" />
          </mxGeometry>
        </mxCell>
        <mxCell id="WIyWlLk6GJQsqaUBKTNV-10" value="Convert word into a list&amp;nbsp;" style="rhombus;whiteSpace=wrap;html=1;shadow=0;fontFamily=Helvetica;fontSize=12;align=center;strokeWidth=1;spacing=6;spacingTop=-4;" parent="WIyWlLk6GJQsqaUBKTNV-1" vertex="1">
          <mxGeometry x="170" y="400" width="100" height="80" as="geometry" />
        </mxCell>
        <mxCell id="QoPVbOla9lt13iPbxesd-26" style="edgeStyle=orthogonalEdgeStyle;rounded=0;orthogonalLoop=1;jettySize=auto;html=1;" edge="1" parent="WIyWlLk6GJQsqaUBKTNV-1" source="WIyWlLk6GJQsqaUBKTNV-11" target="QoPVbOla9lt13iPbxesd-5">
          <mxGeometry relative="1" as="geometry" />
        </mxCell>
        <mxCell id="WIyWlLk6GJQsqaUBKTNV-11" value="Open a for loop to run through each item in the guess_word list" style="rounded=1;whiteSpace=wrap;html=1;fontSize=12;glass=0;strokeWidth=1;shadow=0;" parent="WIyWlLk6GJQsqaUBKTNV-1" vertex="1">
          <mxGeometry x="160" y="610" width="120" height="60" as="geometry" />
        </mxCell>
        <mxCell id="QoPVbOla9lt13iPbxesd-2" value="" style="curved=1;endArrow=classic;html=1;rounded=0;entryX=1;entryY=0.5;entryDx=0;entryDy=0;" edge="1" parent="WIyWlLk6GJQsqaUBKTNV-1" source="WIyWlLk6GJQsqaUBKTNV-7" target="WIyWlLk6GJQsqaUBKTNV-3">
          <mxGeometry width="50" height="50" relative="1" as="geometry">
            <mxPoint x="330" y="140" as="sourcePoint" />
            <mxPoint x="380" y="90" as="targetPoint" />
            <Array as="points">
              <mxPoint x="380" y="140" />
              <mxPoint x="330" y="90" />
            </Array>
          </mxGeometry>
        </mxCell>
        <mxCell id="QoPVbOla9lt13iPbxesd-6" value="Yes" style="edgeStyle=orthogonalEdgeStyle;rounded=0;orthogonalLoop=1;jettySize=auto;html=1;" edge="1" parent="WIyWlLk6GJQsqaUBKTNV-1" source="QoPVbOla9lt13iPbxesd-5" target="QoPVbOla9lt13iPbxesd-7">
          <mxGeometry relative="1" as="geometry">
            <mxPoint x="370" y="770" as="targetPoint" />
          </mxGeometry>
        </mxCell>
        <mxCell id="QoPVbOla9lt13iPbxesd-12" value="No" style="edgeStyle=orthogonalEdgeStyle;rounded=0;orthogonalLoop=1;jettySize=auto;html=1;" edge="1" parent="WIyWlLk6GJQsqaUBKTNV-1" source="QoPVbOla9lt13iPbxesd-5">
          <mxGeometry relative="1" as="geometry">
            <mxPoint x="220" y="910" as="targetPoint" />
          </mxGeometry>
        </mxCell>
        <mxCell id="QoPVbOla9lt13iPbxesd-5" value="Does the [X] in the guess_word match [X] in the target_word" style="rounded=1;whiteSpace=wrap;html=1;" vertex="1" parent="WIyWlLk6GJQsqaUBKTNV-1">
          <mxGeometry x="160" y="720" width="120" height="60" as="geometry" />
        </mxCell>
        <mxCell id="QoPVbOla9lt13iPbxesd-7" value="Return a 2 to the [X] spot in the results list" style="rounded=1;whiteSpace=wrap;html=1;" vertex="1" parent="WIyWlLk6GJQsqaUBKTNV-1">
          <mxGeometry x="360" y="800" width="120" height="60" as="geometry" />
        </mxCell>
        <mxCell id="QoPVbOla9lt13iPbxesd-20" style="edgeStyle=orthogonalEdgeStyle;rounded=0;orthogonalLoop=1;jettySize=auto;html=1;entryX=0.5;entryY=0;entryDx=0;entryDy=0;" edge="1" parent="WIyWlLk6GJQsqaUBKTNV-1" source="QoPVbOla9lt13iPbxesd-9" target="WIyWlLk6GJQsqaUBKTNV-11">
          <mxGeometry relative="1" as="geometry" />
        </mxCell>
        <mxCell id="QoPVbOla9lt13iPbxesd-9" value="Create an empty results list" style="rounded=1;whiteSpace=wrap;html=1;" vertex="1" parent="WIyWlLk6GJQsqaUBKTNV-1">
          <mxGeometry x="160" y="500" width="120" height="60" as="geometry" />
        </mxCell>
        <mxCell id="QoPVbOla9lt13iPbxesd-14" value="It does" style="edgeStyle=orthogonalEdgeStyle;rounded=0;orthogonalLoop=1;jettySize=auto;html=1;" edge="1" parent="WIyWlLk6GJQsqaUBKTNV-1" source="QoPVbOla9lt13iPbxesd-13">
          <mxGeometry relative="1" as="geometry">
            <mxPoint x="360" y="950" as="targetPoint" />
          </mxGeometry>
        </mxCell>
        <mxCell id="QoPVbOla9lt13iPbxesd-16" value="It does not" style="edgeStyle=orthogonalEdgeStyle;rounded=0;orthogonalLoop=1;jettySize=auto;html=1;" edge="1" parent="WIyWlLk6GJQsqaUBKTNV-1" source="QoPVbOla9lt13iPbxesd-13" target="QoPVbOla9lt13iPbxesd-17">
          <mxGeometry relative="1" as="geometry">
            <mxPoint x="220" y="1060" as="targetPoint" />
          </mxGeometry>
        </mxCell>
        <mxCell id="QoPVbOla9lt13iPbxesd-13" value="Run a if in check to see if the letter appears anywhere within the target_word list" style="rounded=1;whiteSpace=wrap;html=1;" vertex="1" parent="WIyWlLk6GJQsqaUBKTNV-1">
          <mxGeometry x="160" y="910" width="120" height="80" as="geometry" />
        </mxCell>
        <mxCell id="QoPVbOla9lt13iPbxesd-24" style="edgeStyle=orthogonalEdgeStyle;rounded=0;orthogonalLoop=1;jettySize=auto;html=1;" edge="1" parent="WIyWlLk6GJQsqaUBKTNV-1" source="QoPVbOla9lt13iPbxesd-15" target="QoPVbOla9lt13iPbxesd-18">
          <mxGeometry relative="1" as="geometry" />
        </mxCell>
        <mxCell id="QoPVbOla9lt13iPbxesd-15" value="Return a 1 at [x] in the results list" style="rounded=1;whiteSpace=wrap;html=1;" vertex="1" parent="WIyWlLk6GJQsqaUBKTNV-1">
          <mxGeometry x="360" y="920" width="120" height="60" as="geometry" />
        </mxCell>
        <mxCell id="QoPVbOla9lt13iPbxesd-23" style="edgeStyle=orthogonalEdgeStyle;rounded=0;orthogonalLoop=1;jettySize=auto;html=1;entryX=0;entryY=0.5;entryDx=0;entryDy=0;" edge="1" parent="WIyWlLk6GJQsqaUBKTNV-1" source="QoPVbOla9lt13iPbxesd-17" target="QoPVbOla9lt13iPbxesd-18">
          <mxGeometry relative="1" as="geometry" />
        </mxCell>
        <mxCell id="QoPVbOla9lt13iPbxesd-17" value="Return a 0 at [X] in the results list" style="rounded=1;whiteSpace=wrap;html=1;" vertex="1" parent="WIyWlLk6GJQsqaUBKTNV-1">
          <mxGeometry x="160" y="1030" width="120" height="60" as="geometry" />
        </mxCell>
        <mxCell id="QoPVbOla9lt13iPbxesd-27" value="No" style="edgeStyle=orthogonalEdgeStyle;rounded=0;orthogonalLoop=1;jettySize=auto;html=1;" edge="1" parent="WIyWlLk6GJQsqaUBKTNV-1" source="QoPVbOla9lt13iPbxesd-18" target="QoPVbOla9lt13iPbxesd-28">
          <mxGeometry relative="1" as="geometry">
            <mxPoint x="420" y="1140" as="targetPoint" />
          </mxGeometry>
        </mxCell>
        <mxCell id="QoPVbOla9lt13iPbxesd-18" value="is the loop still active? (i in list)" style="rounded=1;whiteSpace=wrap;html=1;" vertex="1" parent="WIyWlLk6GJQsqaUBKTNV-1">
          <mxGeometry x="360" y="1030" width="120" height="60" as="geometry" />
        </mxCell>
        <mxCell id="QoPVbOla9lt13iPbxesd-25" value="Yes" style="curved=1;endArrow=classic;html=1;rounded=0;exitX=1;exitY=0.5;exitDx=0;exitDy=0;entryX=1;entryY=0.5;entryDx=0;entryDy=0;" edge="1" parent="WIyWlLk6GJQsqaUBKTNV-1" source="QoPVbOla9lt13iPbxesd-18">
          <mxGeometry x="-0.165" y="7" width="50" height="50" relative="1" as="geometry">
            <mxPoint x="510" y="1040" as="sourcePoint" />
            <mxPoint x="280" y="740" as="targetPoint" />
            <Array as="points">
              <mxPoint x="560" y="1040" />
              <mxPoint x="620" y="770" />
              <mxPoint x="490" y="720" />
            </Array>
            <mxPoint x="1" as="offset" />
          </mxGeometry>
        </mxCell>
        <mxCell id="QoPVbOla9lt13iPbxesd-28" value="Guess count + 1" style="rounded=1;whiteSpace=wrap;html=1;" vertex="1" parent="WIyWlLk6GJQsqaUBKTNV-1">
          <mxGeometry x="360" y="1130" width="120" height="60" as="geometry" />
        </mxCell>
        <mxCell id="QoPVbOla9lt13iPbxesd-29" value="" style="curved=1;endArrow=classic;html=1;rounded=0;exitX=0;exitY=0.5;exitDx=0;exitDy=0;entryX=0;entryY=0.75;entryDx=0;entryDy=0;" edge="1" parent="WIyWlLk6GJQsqaUBKTNV-1" source="QoPVbOla9lt13iPbxesd-28" target="WIyWlLk6GJQsqaUBKTNV-3">
          <mxGeometry width="50" height="50" relative="1" as="geometry">
            <mxPoint x="30" y="1060" as="sourcePoint" />
            <mxPoint x="260" y="320" as="targetPoint" />
            <Array as="points">
              <mxPoint y="1150" />
              <mxPoint x="40" y="240" />
            </Array>
          </mxGeometry>
        </mxCell>
        <mxCell id="QoPVbOla9lt13iPbxesd-31" value="No" style="edgeStyle=orthogonalEdgeStyle;rounded=0;orthogonalLoop=1;jettySize=auto;html=1;" edge="1" parent="WIyWlLk6GJQsqaUBKTNV-1" source="QoPVbOla9lt13iPbxesd-30" target="WIyWlLk6GJQsqaUBKTNV-10">
          <mxGeometry relative="1" as="geometry" />
        </mxCell>
        <mxCell id="QoPVbOla9lt13iPbxesd-32" value="Yes" style="edgeStyle=orthogonalEdgeStyle;rounded=0;orthogonalLoop=1;jettySize=auto;html=1;" edge="1" parent="WIyWlLk6GJQsqaUBKTNV-1" source="QoPVbOla9lt13iPbxesd-30" target="QoPVbOla9lt13iPbxesd-33">
          <mxGeometry relative="1" as="geometry">
            <mxPoint x="430" y="340" as="targetPoint" />
          </mxGeometry>
        </mxCell>
        <mxCell id="QoPVbOla9lt13iPbxesd-30" value="Is the guess the winning word?" style="rounded=1;whiteSpace=wrap;html=1;" vertex="1" parent="WIyWlLk6GJQsqaUBKTNV-1">
          <mxGeometry x="160" y="310" width="120" height="60" as="geometry" />
        </mxCell>
        <mxCell id="QoPVbOla9lt13iPbxesd-33" value="print out congratulations message and end program" style="rounded=1;whiteSpace=wrap;html=1;" vertex="1" parent="WIyWlLk6GJQsqaUBKTNV-1">
          <mxGeometry x="370" y="310" width="120" height="60" as="geometry" />
        </mxCell>
      </root>
    </mxGraphModel>
  </diagram>
</mxfile>
